<mxfile host="app.diagrams.net" modified="2020-07-28T14:02:18.923Z" agent="5.0 (Windows NT 10.0; Win64; x64) AppleWebKit/537.36 (KHTML, like Gecko) Chrome/84.0.4147.89 Safari/537.36" etag="0wZBDprFiUu629yJ1aoD" version="13.5.4" type="github">
  <diagram id="C5RBs43oDa-KdzZeNtuy" name="Page-1">
    <mxGraphModel dx="782" dy="469" grid="1" gridSize="10" guides="1" tooltips="1" connect="1" arrows="1" fold="1" page="1" pageScale="1" pageWidth="827" pageHeight="1169" math="0" shadow="0">
      <root>
        <mxCell id="WIyWlLk6GJQsqaUBKTNV-0" />
        <mxCell id="WIyWlLk6GJQsqaUBKTNV-1" parent="WIyWlLk6GJQsqaUBKTNV-0" />
        <mxCell id="bpjd2lYiDK1TUfh-xBWl-6" value="Select Algo &amp;amp;&lt;br&gt;&lt;span style=&quot;color: rgb(0 , 0 , 0) ; font-family: &amp;#34;helvetica&amp;#34; ; font-size: 12px ; font-style: normal ; font-weight: 400 ; letter-spacing: normal ; text-align: center ; text-indent: 0px ; text-transform: none ; word-spacing: 0px ; background-color: rgb(248 , 249 , 250) ; display: inline ; float: none&quot;&gt;StartSession&lt;/span&gt;" style="ellipse;whiteSpace=wrap;html=1;gradientColor=#ffffff;" vertex="1" parent="WIyWlLk6GJQsqaUBKTNV-1">
          <mxGeometry x="278.75" y="130" width="200" height="40" as="geometry" />
        </mxCell>
        <mxCell id="bpjd2lYiDK1TUfh-xBWl-24" style="edgeStyle=none;rounded=0;orthogonalLoop=1;jettySize=auto;html=1;exitX=0.5;exitY=1;exitDx=0;exitDy=0;entryX=0.5;entryY=0;entryDx=0;entryDy=0;" edge="1" parent="WIyWlLk6GJQsqaUBKTNV-1" source="bpjd2lYiDK1TUfh-xBWl-20" target="bpjd2lYiDK1TUfh-xBWl-23">
          <mxGeometry relative="1" as="geometry" />
        </mxCell>
        <mxCell id="bpjd2lYiDK1TUfh-xBWl-20" value="Encrypt/Decrypt" style="shape=process;whiteSpace=wrap;html=1;backgroundOutline=1;gradientColor=#ffffff;" vertex="1" parent="WIyWlLk6GJQsqaUBKTNV-1">
          <mxGeometry x="320" y="450" width="120" height="60" as="geometry" />
        </mxCell>
        <mxCell id="bpjd2lYiDK1TUfh-xBWl-22" style="edgeStyle=none;rounded=0;orthogonalLoop=1;jettySize=auto;html=1;entryX=0.5;entryY=0;entryDx=0;entryDy=0;" edge="1" parent="WIyWlLk6GJQsqaUBKTNV-1" source="bpjd2lYiDK1TUfh-xBWl-21" target="bpjd2lYiDK1TUfh-xBWl-20">
          <mxGeometry relative="1" as="geometry" />
        </mxCell>
        <mxCell id="bpjd2lYiDK1TUfh-xBWl-21" value="Input Plain Text" style="rounded=0;whiteSpace=wrap;html=1;gradientColor=#ffffff;" vertex="1" parent="WIyWlLk6GJQsqaUBKTNV-1">
          <mxGeometry x="320" y="360" width="120" height="60" as="geometry" />
        </mxCell>
        <mxCell id="bpjd2lYiDK1TUfh-xBWl-51" style="edgeStyle=none;rounded=0;orthogonalLoop=1;jettySize=auto;html=1;entryX=0.5;entryY=0;entryDx=0;entryDy=0;" edge="1" parent="WIyWlLk6GJQsqaUBKTNV-1" source="bpjd2lYiDK1TUfh-xBWl-23" target="bpjd2lYiDK1TUfh-xBWl-50">
          <mxGeometry relative="1" as="geometry" />
        </mxCell>
        <mxCell id="bpjd2lYiDK1TUfh-xBWl-23" value="Repeat by changing key&lt;br&gt;&amp;nbsp;OR &lt;br&gt;with same key" style="rhombus;whiteSpace=wrap;html=1;gradientColor=#ffffff;" vertex="1" parent="WIyWlLk6GJQsqaUBKTNV-1">
          <mxGeometry x="290" y="540" width="180" height="130" as="geometry" />
        </mxCell>
        <mxCell id="bpjd2lYiDK1TUfh-xBWl-25" value="Yes" style="text;html=1;strokeColor=none;fillColor=none;align=center;verticalAlign=middle;whiteSpace=wrap;rounded=0;" vertex="1" parent="WIyWlLk6GJQsqaUBKTNV-1">
          <mxGeometry x="480" y="580" width="40" height="20" as="geometry" />
        </mxCell>
        <mxCell id="bpjd2lYiDK1TUfh-xBWl-26" value="No" style="text;html=1;strokeColor=none;fillColor=none;align=center;verticalAlign=middle;whiteSpace=wrap;rounded=0;" vertex="1" parent="WIyWlLk6GJQsqaUBKTNV-1">
          <mxGeometry x="250" y="580" width="40" height="20" as="geometry" />
        </mxCell>
        <mxCell id="bpjd2lYiDK1TUfh-xBWl-36" value="" style="endArrow=none;html=1;entryX=0.5;entryY=1;entryDx=0;entryDy=0;" edge="1" parent="WIyWlLk6GJQsqaUBKTNV-1" target="bpjd2lYiDK1TUfh-xBWl-6">
          <mxGeometry width="50" height="50" relative="1" as="geometry">
            <mxPoint x="380" y="210" as="sourcePoint" />
            <mxPoint x="440" y="310" as="targetPoint" />
          </mxGeometry>
        </mxCell>
        <mxCell id="bpjd2lYiDK1TUfh-xBWl-40" value="Generate&amp;nbsp;&lt;br&gt;OR&amp;nbsp;&lt;br&gt;&amp;nbsp;Load Key" style="rhombus;whiteSpace=wrap;html=1;gradientColor=#ffffff;" vertex="1" parent="WIyWlLk6GJQsqaUBKTNV-1">
          <mxGeometry x="310" y="210" width="140" height="80" as="geometry" />
        </mxCell>
        <mxCell id="bpjd2lYiDK1TUfh-xBWl-41" value="" style="endArrow=classic;html=1;exitX=1;exitY=0.5;exitDx=0;exitDy=0;" edge="1" parent="WIyWlLk6GJQsqaUBKTNV-1" source="bpjd2lYiDK1TUfh-xBWl-40">
          <mxGeometry width="50" height="50" relative="1" as="geometry">
            <mxPoint x="390" y="340" as="sourcePoint" />
            <mxPoint x="550" y="300" as="targetPoint" />
            <Array as="points">
              <mxPoint x="550" y="250" />
            </Array>
          </mxGeometry>
        </mxCell>
        <mxCell id="bpjd2lYiDK1TUfh-xBWl-42" value="" style="endArrow=classic;html=1;exitX=0;exitY=0.5;exitDx=0;exitDy=0;" edge="1" parent="WIyWlLk6GJQsqaUBKTNV-1" source="bpjd2lYiDK1TUfh-xBWl-40">
          <mxGeometry width="50" height="50" relative="1" as="geometry">
            <mxPoint x="460" y="260" as="sourcePoint" />
            <mxPoint x="200" y="300" as="targetPoint" />
            <Array as="points">
              <mxPoint x="200" y="250" />
            </Array>
          </mxGeometry>
        </mxCell>
        <mxCell id="bpjd2lYiDK1TUfh-xBWl-43" value="Generate by selecting key size PRNG" style="shape=process;whiteSpace=wrap;html=1;backgroundOutline=1;gradientColor=#ffffff;" vertex="1" parent="WIyWlLk6GJQsqaUBKTNV-1">
          <mxGeometry x="140" y="300" width="120" height="40" as="geometry" />
        </mxCell>
        <mxCell id="bpjd2lYiDK1TUfh-xBWl-45" value="Input from file QRNG|HWRNG" style="rounded=0;whiteSpace=wrap;html=1;gradientColor=#ffffff;" vertex="1" parent="WIyWlLk6GJQsqaUBKTNV-1">
          <mxGeometry x="490" y="300" width="120" height="40" as="geometry" />
        </mxCell>
        <mxCell id="bpjd2lYiDK1TUfh-xBWl-46" value="" style="endArrow=classic;html=1;exitX=0.5;exitY=1;exitDx=0;exitDy=0;entryX=0;entryY=0.5;entryDx=0;entryDy=0;" edge="1" parent="WIyWlLk6GJQsqaUBKTNV-1" source="bpjd2lYiDK1TUfh-xBWl-43" target="bpjd2lYiDK1TUfh-xBWl-21">
          <mxGeometry width="50" height="50" relative="1" as="geometry">
            <mxPoint x="390" y="340" as="sourcePoint" />
            <mxPoint x="203" y="400" as="targetPoint" />
            <Array as="points">
              <mxPoint x="200" y="390" />
            </Array>
          </mxGeometry>
        </mxCell>
        <mxCell id="bpjd2lYiDK1TUfh-xBWl-47" value="" style="endArrow=classic;html=1;exitX=0.5;exitY=1;exitDx=0;exitDy=0;entryX=1;entryY=0.5;entryDx=0;entryDy=0;" edge="1" parent="WIyWlLk6GJQsqaUBKTNV-1" source="bpjd2lYiDK1TUfh-xBWl-45" target="bpjd2lYiDK1TUfh-xBWl-21">
          <mxGeometry width="50" height="50" relative="1" as="geometry">
            <mxPoint x="213.27999999999997" y="352.67999999999995" as="sourcePoint" />
            <mxPoint x="330" y="400" as="targetPoint" />
            <Array as="points">
              <mxPoint x="550" y="390" />
            </Array>
          </mxGeometry>
        </mxCell>
        <mxCell id="bpjd2lYiDK1TUfh-xBWl-48" value="" style="endArrow=classic;html=1;exitX=1;exitY=0.5;exitDx=0;exitDy=0;" edge="1" parent="WIyWlLk6GJQsqaUBKTNV-1" source="bpjd2lYiDK1TUfh-xBWl-23">
          <mxGeometry width="50" height="50" relative="1" as="geometry">
            <mxPoint x="640" y="570" as="sourcePoint" />
            <mxPoint x="380" y="190" as="targetPoint" />
            <Array as="points">
              <mxPoint x="620" y="605" />
              <mxPoint x="620" y="190" />
            </Array>
          </mxGeometry>
        </mxCell>
        <mxCell id="bpjd2lYiDK1TUfh-xBWl-49" value="" style="endArrow=classic;html=1;exitX=0;exitY=0.5;exitDx=0;exitDy=0;entryX=0;entryY=0.5;entryDx=0;entryDy=0;" edge="1" parent="WIyWlLk6GJQsqaUBKTNV-1" source="bpjd2lYiDK1TUfh-xBWl-23" target="bpjd2lYiDK1TUfh-xBWl-21">
          <mxGeometry width="50" height="50" relative="1" as="geometry">
            <mxPoint x="130" y="600" as="sourcePoint" />
            <mxPoint x="440" y="380" as="targetPoint" />
            <Array as="points">
              <mxPoint x="200" y="605" />
              <mxPoint x="200" y="570" />
              <mxPoint x="200" y="390" />
            </Array>
          </mxGeometry>
        </mxCell>
        <mxCell id="bpjd2lYiDK1TUfh-xBWl-50" value="Exit" style="ellipse;whiteSpace=wrap;html=1;gradientColor=#ffffff;" vertex="1" parent="WIyWlLk6GJQsqaUBKTNV-1">
          <mxGeometry x="280" y="720" width="200" height="40" as="geometry" />
        </mxCell>
        <mxCell id="bpjd2lYiDK1TUfh-xBWl-52" value="&lt;font style=&quot;font-size: 36px&quot;&gt;Encryption Decryption Module&amp;nbsp;&lt;/font&gt;" style="text;html=1;strokeColor=none;fillColor=none;align=center;verticalAlign=middle;whiteSpace=wrap;rounded=0;" vertex="1" parent="WIyWlLk6GJQsqaUBKTNV-1">
          <mxGeometry x="120" y="50" width="570" height="20" as="geometry" />
        </mxCell>
      </root>
    </mxGraphModel>
  </diagram>
</mxfile>
